<svg xmlns="http://www.w3.org/2000/svg" width="20" height="20" viewBox="0 0 20 20"><defs><clipPath id="o4oaa"><path fill="#fff" d="M10 0c5.523 0 10 4.477 10 10 0 5.522-4.477 10-10 10S0 15.521 0 10C0 4.477 4.477 0 10 0z"/></clipPath></defs><g><g><path fill="#fff" d="M10 0c5.523 0 10 4.477 10 10 0 5.522-4.477 10-10 10S0 15.521 0 10C0 4.477 4.477 0 10 0z"/><path fill="none" stroke="#dd1781" stroke-linecap="round" stroke-linejoin="round" stroke-miterlimit="50" stroke-width="2" d="M10 0c5.523 0 10 4.477 10 10 0 5.522-4.477 10-10 10S0 15.521 0 10C0 4.477 4.477 0 10 0z" clip-path="url(&quot;#o4oaa&quot;)"/></g><g><g><text dominant-baseline="text-before-edge" style="line-height:22.04183px" fill="#dd1781" font-family="'OpenSans-Semibold','OpenSans-Semibold'" font-size="20.44" font-style="none" font-weight="400" transform="translate(7 6)"><tspan style="font-kerning:normal" letter-spacing="-.82">?</tspan></text></g></g></g></svg>