<svg xmlns="http://www.w3.org/2000/svg" width="14" height="15" viewBox="0 0 14 15"><g><g><path fill="#fff" d="M2.865.009c.887-.168 1.468.829 1.91 1.518.431.668.96 1.453.747 2.324-.12.488-.561.753-.896 1.041-.33.286-.832.546-.954.984-.2.709.236 1.453.506 1.877.613.957 1.353 1.82 2.299 2.59.458.373 1.093.876 1.73.745.951-.192 1.203-1.363 2.239-1.52.986-.148 1.653.566 2.21 1.044.536.462 1.401 1.055 1.342 1.849-.034.454-.4.737-.717 1.012-.323.28-.606.596-.924.802-.773.504-1.72.75-2.807.716-1.066-.032-1.915-.395-2.686-.803-1.507-.803-2.698-1.931-3.82-3.189C1.942 9.764.923 8.3.359 6.681c-.702-2.021-.33-4.096.807-5.391.193-.22.497-.45.775-.686.278-.235.535-.524.925-.595z"/></g></g></svg>